<?xml version="1.0" encoding="UTF-8" standalone="no"?>
<svg
   xmlns:dc="http://purl.org/dc/elements/1.1/"
   xmlns:cc="http://creativecommons.org/ns#"
   xmlns:rdf="http://www.w3.org/1999/02/22-rdf-syntax-ns#"
   xmlns:svg="http://www.w3.org/2000/svg"
   xmlns="http://www.w3.org/2000/svg"
   xmlns:sodipodi="http://sodipodi.sourceforge.net/DTD/sodipodi-0.dtd"
   xmlns:inkscape="http://www.inkscape.org/namespaces/inkscape"
   version="1.1"
   x="0px"
   y="0px"
   width="17"
   height="17"
   viewBox="0 0 17 17"
   xml:space="preserve"
   id="svg3877"
   inkscape:version="0.48.4 r9939"
   sodipodi:docname="ic_mic_black.svg"><metadata
     id="metadata3888"><rdf:RDF><cc:Work
         rdf:about=""><dc:format>image/svg+xml</dc:format><dc:type
           rdf:resource="http://purl.org/dc/dcmitype/StillImage" /></cc:Work></rdf:RDF></metadata><defs
     id="defs3886" /><sodipodi:namedview
     pagecolor="#ffffff"
     bordercolor="#666666"
     borderopacity="1"
     objecttolerance="10"
     gridtolerance="10"
     guidetolerance="10"
     inkscape:pageopacity="0"
     inkscape:pageshadow="2"
     inkscape:window-width="1188"
     inkscape:window-height="565"
     id="namedview3884"
     showgrid="false"
     fit-margin-top="0"
     fit-margin-left="0"
     fit-margin-right="0"
     fit-margin-bottom="0"
     inkscape:zoom="7.8666667"
     inkscape:cx="-13.420197"
     inkscape:cy="12.54512"
     inkscape:window-x="390"
     inkscape:window-y="263"
     inkscape:window-maximized="0"
     inkscape:current-layer="svg3877" /><path
     d="M 8.21048,0 C 6.88119,0 5.7936,1.0876 5.7936,2.41688 l 0,5.77157 c 0,1.32888 1.08759,2.41688 2.41688,2.41688 l 0.58062,0 c 1.32928,0 2.41688,-1.088 2.41688,-2.41688 l 0,-5.77157 C 11.20798,1.0876 10.12038,0 8.7911,0 L 8.21048,0 z M 3.2052,6.61968 c -0.24793,0 -0.45159,0.20351 -0.45159,0.45159 l 0,0.40281 c 0,2.96381 2.0268,5.41976 4.83849,5.85969 l 0,1.86144 -1.73399,0 c -0.24834,0 -0.45002,0.20325 -0.45002,0.45159 l 0,0.90161 C 5.40809,16.79629 5.60977,17 5.85811,17 l 5.27119,0 c 0.24804,0 0.4516,-0.20371 0.4516,-0.45159 l 0,-0.90161 c 0,-0.24834 -0.20356,-0.45159 -0.4516,-0.45159 l -1.73241,0 0,-1.86144 c 2.81411,-0.43952 4.8495,-2.89588 4.8495,-5.85969 l 0,-0.40281 c 0,-0.24808 -0.20376,-0.45159 -0.45159,-0.45159 l -0.45159,0 c -0.24834,0 -0.45002,0.20351 -0.45002,0.45159 l 0,0.40281 c 0,2.53068 -1.86921,4.58201 -4.39948,4.58201 -2.53068,0 -4.38532,-2.05133 -4.38532,-4.58201 l 0,-0.40281 c 0,-0.24808 -0.20326,-0.45159 -0.4516,-0.45159 l -0.45159,0 z"
     id="path3880"
     inkscape:connector-curvature="0" /></svg>