<?xml version="1.0" encoding="UTF-8" standalone="no"?>
<svg
   xmlns:dc="http://purl.org/dc/elements/1.1/"
   xmlns:cc="http://creativecommons.org/ns#"
   xmlns:rdf="http://www.w3.org/1999/02/22-rdf-syntax-ns#"
   xmlns:svg="http://www.w3.org/2000/svg"
   xmlns="http://www.w3.org/2000/svg"
   xmlns:sodipodi="http://sodipodi.sourceforge.net/DTD/sodipodi-0.dtd"
   xmlns:inkscape="http://www.inkscape.org/namespaces/inkscape"
   xml:space="preserve"
   version="1.0"
   id="layer1"
   width="15.999998"
   height="16"
   viewBox="0 0 2.3999997 2.4"
   inkscape:version="0.48.4 r9939"
   sodipodi:docname="ic_speaker_mute_black.svg"><defs
     id="defs3007" /><sodipodi:namedview
     pagecolor="#ffffff"
     bordercolor="#666666"
     borderopacity="1"
     objecttolerance="10"
     gridtolerance="10"
     guidetolerance="10"
     inkscape:pageopacity="0"
     inkscape:pageshadow="2"
     inkscape:window-width="1920"
     inkscape:window-height="1021"
     id="namedview3005"
     showgrid="false"
     showguides="true"
     inkscape:guide-bbox="true"
     inkscape:zoom="29.370387"
     inkscape:cx="10.425493"
     inkscape:cy="8.6324921"
     inkscape:window-x="0"
     inkscape:window-y="27"
     inkscape:window-maximized="1"
     inkscape:current-layer="g4181"
     inkscape:snap-smooth-nodes="false"
     inkscape:object-paths="false"
     fit-margin-top="0"
     fit-margin-left="0"
     fit-margin-right="0"
     fit-margin-bottom="0" /><metadata
     id="metadata1"><rdf:RDF><cc:Work
         rdf:about=""><dc:format>image/svg+xml</dc:format><dc:type
           rdf:resource="http://purl.org/dc/dcmitype/StillImage" /><dc:title></dc:title></cc:Work></rdf:RDF></metadata><g
     id="g1"
     transform="translate(-3.5,-62.856127)"><g
       id="g4181"
       transform="matrix(0.03502891,0,0,0.03502891,3.3773988,62.71596)"><path
         style="font-size:medium;font-style:normal;font-variant:normal;font-weight:normal;font-stretch:normal;text-indent:0;text-align:start;text-decoration:none;line-height:normal;letter-spacing:normal;word-spacing:normal;text-transform:none;direction:ltr;block-progression:tb;writing-mode:lr-tb;text-anchor:start;baseline-shift:baseline;color:#000000;fill:#ffffff;fill-opacity:1;fill-rule:nonzero;stroke:none;stroke-width:5;marker:none;visibility:visible;display:inline;overflow:visible;enable-background:accumulate;font-family:Sans;-inkscape-font-specification:Sans"
         d="M 8.3125 1.6875 A 0.58387355 0.58387355 0 0 0 8 1.84375 L 4.15625 5.15625 L 0.59375 5.15625 A 0.58387355 0.58387355 0 0 0 0 5.75 L 0 10.1875 A 0.58387355 0.58387355 0 0 0 0.59375 10.78125 L 4.09375 10.78125 L 8 14.15625 A 0.58387355 0.58387355 0 0 0 8.96875 13.71875 L 8.96875 2.28125 A 0.58387355 0.58387355 0 0 0 8.3125 1.6875 z M 10.46875 4.53125 A 0.58387355 0.58387355 0 0 0 10.09375 5.5 L 12.1875 7.96875 L 10.09375 10.4375 A 0.58495433 0.58495433 0 1 0 11 11.1875 L 12.96875 8.875 L 14.9375 11.1875 A 0.58387355 0.58387355 0 1 0 15.84375 10.4375 L 13.75 7.96875 L 15.84375 5.5 A 0.58387355 0.58387355 0 0 0 15.40625 4.53125 A 0.58387355 0.58387355 0 0 0 14.9375 4.75 L 12.96875 7.0625 L 11 4.75 A 0.58387355 0.58387355 0 0 0 10.53125 4.53125 A 0.58387355 0.58387355 0 0 0 10.46875 4.53125 z "
         transform="matrix(4.2821772,0,0,4.2821772,3.5000002,4.0014662)"
         id="path4175" /></g></g></svg>