<?xml version="1.0" encoding="UTF-8" standalone="no"?>
<svg
   xmlns:dc="http://purl.org/dc/elements/1.1/"
   xmlns:cc="http://creativecommons.org/ns#"
   xmlns:rdf="http://www.w3.org/1999/02/22-rdf-syntax-ns#"
   xmlns:svg="http://www.w3.org/2000/svg"
   xmlns="http://www.w3.org/2000/svg"
   xmlns:sodipodi="http://sodipodi.sourceforge.net/DTD/sodipodi-0.dtd"
   xmlns:inkscape="http://www.inkscape.org/namespaces/inkscape"
   version="1.1"
   x="0px"
   y="0px"
   width="16"
   height="16"
   viewBox="0 0 15.999999 16"
   xml:space="preserve"
   id="svg3877"
   inkscape:version="0.48.4 r9939"
   sodipodi:docname="ic_mic_mute_white.svg"><metadata
     id="metadata3888"><rdf:RDF><cc:Work
         rdf:about=""><dc:format>image/svg+xml</dc:format><dc:type
           rdf:resource="http://purl.org/dc/dcmitype/StillImage" /><dc:title></dc:title></cc:Work></rdf:RDF></metadata><defs
     id="defs3886" /><sodipodi:namedview
     pagecolor="#ffffff"
     bordercolor="#666666"
     borderopacity="1"
     objecttolerance="10"
     gridtolerance="10"
     guidetolerance="10"
     inkscape:pageopacity="0"
     inkscape:pageshadow="2"
     inkscape:window-width="1188"
     inkscape:window-height="565"
     id="namedview3884"
     showgrid="false"
     fit-margin-top="0"
     fit-margin-left="0"
     fit-margin-right="0"
     fit-margin-bottom="0"
     inkscape:zoom="16"
     inkscape:cx="5.3907732"
     inkscape:cy="7.1113462"
     inkscape:window-x="390"
     inkscape:window-y="263"
     inkscape:window-maximized="0"
     inkscape:current-layer="svg3877" /><path
     d="M 7.7352922,0 C 6.4841958,0 5.4411746,1.0136188 5.4411746,2.2647059 l 0,0.4705882 5.0882344,5.0882353 c 0.002,-0.039204 0.02941,-0.077961 0.02941,-0.117647 l 0,-5.4411765 C 10.558821,1.0136188 9.5157911,0 8.264704,0 L 7.7352922,0 z M 2.5882334,1.7647059 c -0.061165,0 -0.1296027,0.011956 -0.1764706,0.058823 L 1.8235275,2.4117647 c -0.093736,0.093736 -0.093736,0.2592055 0,0.3529412 l 3.6176471,3.617647 0,1.3235295 c 0,1.2507105 1.0430212,2.2647056 2.2941176,2.2647056 l 0.5294118,0 c 0.2301711,0 0.4658623,-0.02579 0.6764706,-0.08823 l 0.9705878,0.970588 c -0.5699961,0.302597 -1.2041278,0.5 -1.9117643,0.5 -2.3818164,0 -4.1470588,-1.941713 -4.1470588,-4.3235292 l 0,-0.382353 c 0,-0.233487 -0.1780329,-0.4117647 -0.4117647,-0.4117647 l -0.4117647,0 c -0.2333459,0 -0.4411765,0.1782777 -0.4411765,0.4117647 l 0,0.382353 c 0,2.7894682 1.9125271,5.1153602 4.5588235,5.5294122 l 0,1.735294 -1.6470588,0 c -0.2337317,0 -0.4117647,0.207444 -0.4117647,0.441176 l 0,0.852941 c 0,0.233294 0.178033,0.41176 0.4117647,0.41176 l 4.9705879,0 c 0.233449,0 0.441176,-0.178466 0.441176,-0.411765 l 0,-0.852941 c 0,-0.233732 -0.207727,-0.441176 -0.441176,-0.441176 l -1.6176467,0 0,-1.735294 c 0.7310579,-0.11418 1.3887227,-0.407625 1.9705877,-0.794118 l 2.411766,2.411765 c 0.09374,0.09374 0.259204,0.09374 0.35294,0 l 0.588235,-0.588236 c 0.09374,-0.09373 0.09374,-0.259205 0,-0.352941 L 2.764704,1.8235294 C 2.7178362,1.7766616 2.6493985,1.7647059 2.5882334,1.7647059 z m 9.9705886,4.4705882 c -0.233732,0 -0.411764,0.1782777 -0.411764,0.4117647 l 0,0.382353 c 0,0.7041957 -0.192416,1.354089 -0.47059,1.9411764 l 0.970589,0.9705878 c 0.496461,-0.848968 0.764705,-1.8423614 0.764705,-2.9117642 l 0,-0.382353 c 0,-0.233487 -0.207923,-0.4117647 -0.441175,-0.4117647 l -0.411766,0 z"
     id="path3880"
     style="fill:#ffffff"
     inkscape:connector-curvature="0" /></svg>